<?xml version="1.0" encoding="iso-8859-1"?>
<!-- Generator: Adobe Illustrator 19.0.0, SVG Export Plug-In . SVG Version: 6.00 Build 0)  -->
<svg version="1.1" id="Capa_1" xmlns="http://www.w3.org/2000/svg" xmlns:xlink="http://www.w3.org/1999/xlink" x="0px" y="0px"
	 viewBox="0 0 490.667 490.667" style="enable-background:new 0 0 490.667 490.667;" xml:space="preserve">
<g>
	<g>
		<g>
			<path d="M368,0H69.333C39.893,0.035,16.035,23.893,16,53.333v384c0.035,29.441,23.893,53.298,53.333,53.333H368
				c5.891,0,10.667-4.776,10.667-10.667V10.667C378.667,4.776,373.891,0,368,0z M357.333,469.333h-288c-17.673,0-32-14.327-32-32
				V95.723c9.177,7.059,20.422,10.905,32,10.944h288V469.333z M357.333,42.667H90.667V64h266.667v21.333h-288
				c-17.673,0-32-14.327-32-32s14.327-32,32-32h288V42.667z"/>
			<rect x="133.333" y="202.667" width="128" height="21.333"/>
			<rect x="101.333" y="266.667" width="192" height="21.333"/>
			<path d="M453.333,10.667H432c-11.782,0-21.333,9.551-21.333,21.333v394.667c-0.018,1.65,0.347,3.283,1.067,4.768l21.333,42.667
				c2.628,5.272,9.032,7.416,14.305,4.789c2.074-1.034,3.755-2.715,4.789-4.789l21.333-42.667c0.757-1.476,1.158-3.109,1.173-4.768
				V32C474.667,20.218,465.115,10.667,453.333,10.667z M453.333,424.149l-6.592,13.184h-8.149L432,424.149V96h21.333V424.149z
				 M453.333,74.667H432V32h21.333V74.667z"/>
		</g>
	</g>
</g>
<g>
</g>
<g>
</g>
<g>
</g>
<g>
</g>
<g>
</g>
<g>
</g>
<g>
</g>
<g>
</g>
<g>
</g>
<g>
</g>
<g>
</g>
<g>
</g>
<g>
</g>
<g>
</g>
<g>
</g>
</svg>
