<svg height="512" viewBox="0 0 60 60" width="512" xmlns="http://www.w3.org/2000/svg"><g id="Page-1" fill="none" fill-rule="evenodd"><g id="137---Command-File" fill-rule="nonzero"><g id="Icons" transform="translate(1 1)"><rect id="Rectangle-path" fill="#607d8b" height="34" rx="4" width="42" x="16" y="24"/><path id="Shape" d="m54 24h-3c2.209139 0 4 1.790861 4 4v26c0 2.209139-1.790861 4-4 4h3c2.209139 0 4-1.790861 4-4v-26c0-2.209139-1.790861-4-4-4z" fill="#37474f"/><path id="Shape" d="m44 4v20h-24c-2.209139 0-4 1.790861-4 4v26h-12c-2.209139 0-4-1.790861-4-4v-37h9c2.209139 0 4-1.790861 4-4v-9h27c2.209139 0 4 1.790861 4 4z" fill="#ffe0b2"/><path id="Shape" d="m13 28v26h3v-26c0-2.209139 1.790861-4 4-4h-3c-2.209139 0-4 1.790861-4 4z" fill="#dfc49c"/><path id="Shape" d="m40 0h-3c2.209139 0 4 1.790861 4 4v20h3v-20c0-2.209139-1.790861-4-4-4z" fill="#dfc49c"/><path id="Shape" d="m13 0v9c0 2.209139-1.790861 4-4 4h-9z" fill="#a0522d"/><path id="Rectangle-path" d="m20 28h34v26h-34z" fill="#009688"/><path id="Rectangle-path" d="m51 28h3v26h-3z" fill="#00695c"/><g fill="#f5f5f5"><path id="Shape" d="m34 5h-6c-.5522847 0-1-.44771525-1-1s.4477153-1 1-1h6c.5522847 0 1 .44771525 1 1s-.4477153 1-1 1z"/><path id="Shape" d="m40 5h-2c-.5522847 0-1-.44771525-1-1s.4477153-1 1-1h2c.5522847 0 1 .44771525 1 1s-.4477153 1-1 1z"/></g></g><g id="Layer_2" fill="#000"><path id="Shape" d="m6 51h1c.55228475 0 1-.4477153 1-1s-.44771525-1-1-1h-1c-.55228475 0-1 .4477153-1 1s.44771525 1 1 1z"/><path id="Shape" d="m20 29v26c0 .5522847.4477153 1 1 1h34c.5522847 0 1-.4477153 1-1v-26c0-.5522847-.4477153-1-1-1h-34c-.5522847 0-1 .4477153-1 1zm2 1h32v24h-32z"/><path id="Shape" d="m29.6 35.2-4-3c-.4418278-.3313708-1.0686292-.2418278-1.4.2s-.2418278 1.0686292.2 1.4l2.933 2.2-2.933 2.2c-.2858125.2143594-.4355547.5649147-.3928203.9196152.0427344.3547006.2714531.6596589.6.8.3285469.1403412.7070078.0947442.9928203-.1196152l4-3c.2518058-.1888544.4-.4852427.4-.8s-.1481942-.6111456-.4-.8z"/><path id="Shape" d="m34 38h-3c-.5522847 0-1 .4477153-1 1s.4477153 1 1 1h3c.5522847 0 1-.4477153 1-1s-.4477153-1-1-1z"/><path id="Shape" d="m16.1 56c.4784327 2.3264168 2.5248992 3.9970017 4.9 4h34c2.7600532-.0033061 4.9966939-2.2399468 5-5v-26c-.0033061-2.7600532-2.2399468-4.9966939-5-5h-9v-19c-.0033061-2.76005315-2.2399468-4.99669388-5-5h-27c-.1322605-.00003147-.2631811.0264927-.385.078-.1210686.04959916-.2309163.12305771-.323.216l-13 13c-.09294229.0920837-.16640084.2019314-.216.323-.05055986.1213396-.0763977.2515487-.076.383v37c.00330612 2.7600532 2.23994685 4.9966939 5 5zm41.9-27v26c0 1.6568542-1.3431458 3-3 3h-34c-1.6568542 0-3-1.3431458-3-3v-26c0-1.6568542 1.3431458-3 3-3h34c1.6568542 0 3 1.3431458 3 3zm-45-25.586v6.586c0 1.6568542-1.3431458 3-3 3h-6.586zm-11 47.586v-36h8c2.7600532-.0033061 4.9966939-2.2399468 5-5v-8h26c1.6568542 0 3 1.34314575 3 3v19h-23c-2.7600532.0033061-4.9966939 2.2399468-5 5v20h-5c-.5522847 0-1 .4477153-1 1s.4477153 1 1 1h5v3h-11c-1.65685425 0-3-1.3431458-3-3z"/></g></g></g></svg>